<svg width="70" height="83" viewBox="0 0 70 83" fill="none" xmlns="http://www.w3.org/2000/svg">
<rect x="0.5" y="0.5" width="69" height="82" rx="1.22917" fill="#D6EBFF" stroke="#A7DFFF"/>
<mask id="mask0_1963_64890" style="mask-type:alpha" maskUnits="userSpaceOnUse" x="1" y="1" width="68" height="81">
<rect x="1" y="1" width="68" height="81" rx="1" fill="#D9D9D9"/>
</mask>
<g mask="url(#mask0_1963_64890)">
<path d="M51.2358 24.8606L46.0012 19.2896L49.5295 15.7035C53.6081 15.858 55.6411 15.092 58.7323 11.9256L59.165 16.8627L51.2358 24.8606Z" fill="#E08878"/>
<path d="M47.9876 28.183C45.5971 31.9073 40.588 43.5336 41.8186 45.1309C43.4864 47.2956 46.6729 36.8099 52.218 28.4144L50.7605 23.2061C48.9406 22.0773 45.3315 20.0935 45.4539 21.1882C45.6068 22.5565 39.8689 27.6848 39.8689 27.6848C39.8689 27.6848 30.017 35.1653 31.4007 36.5725C32.7844 37.9796 45.4865 27.7622 46.4486 26.9647C47.2183 26.3268 48.4001 27.5404 47.9876 28.183Z" fill="#FCB7A0"/>
<path d="M44.462 21.6382C44.812 24.7702 50.329 25.0929 53.0437 24.8627C53.7051 23.6021 53.637 20.8364 48.0735 19.8583C48.1621 19.4526 48.2512 18.5715 47.8985 18.2923C48.4564 17.9012 49.5898 16.919 49.6608 16.1187C51.8764 16.2072 56.7836 15.619 58.6874 12.5581L61.276 24.9563C69.0326 11.8257 67.714 8.99752 59.5714 6.12061C55.3749 4.63792 47.0389 11.2394 45.2328 13.0215C43.4268 14.8036 44.0245 17.7233 44.462 21.6382Z" fill="#FCB7A0"/>
<path d="M57.4816 26.9493C56.5118 29.0364 54.0973 32.1926 52.1984 28.1201C49.8248 23.0295 52.9981 17.3333 54.143 16.8121C55.0589 16.3951 55.6687 17.3061 55.8591 17.8137C55.9373 16.3637 57.2514 14.0139 58.4151 13.7702C59.6482 13.512 61.3714 14.0139 60.794 21.4078L61.214 23.1442C61.4284 23.6597 61.6265 24.1248 61.5412 24.4973C60.8369 27.5711 58.1279 27.4608 57.4816 26.9493Z" fill="#FCB7A0"/>
<path d="M57.4859 26.9514C56.516 29.0386 54.1015 32.1948 52.2027 28.1222C49.8291 23.0316 53.0024 17.3354 54.1473 16.8142C55.0632 16.3973 55.673 17.3082 55.8634 17.8158C55.8907 16.3202 57.2246 13.9875 58.4193 13.7724C59.5773 13.5639 59.8969 14.8947 59.5641 21.1467L60.1353 22.6694C59.6516 21.9297 59.5405 21.59 59.5641 21.1467C59.8969 14.8947 59.5773 13.5639 58.4193 13.7724C57.2246 13.9875 55.8907 16.3202 55.8634 17.8158C55.5603 22.3603 55.9074 24.3871 57.4859 26.9514Z" fill="#FCB7A0"/>
<path d="M57.4859 26.9514C56.516 29.0386 54.1015 32.1948 52.2027 28.1222C49.8291 23.0316 53.0024 17.3354 54.1473 16.8142C55.0632 16.3973 55.673 17.3082 55.8634 17.8158M57.4859 26.9514C58.1322 27.4629 60.732 27.5927 61.4363 24.5189M57.4859 26.9514C55.9074 24.3871 55.5603 22.3603 55.8634 17.8158M55.8634 17.8158C55.8907 16.3202 57.2246 13.9875 58.4193 13.7724C59.5773 13.5639 59.8969 14.8947 59.5641 21.1467M59.5641 21.1467C59.5405 21.59 59.6516 21.9297 60.1353 22.6694L59.5641 21.1467Z" stroke="#E08878" stroke-width="0.207641"/>
<path d="M44.457 21.6386C44.807 24.7705 50.324 25.0932 53.0387 24.8631C53.7001 23.6025 53.632 20.8367 48.0685 19.8587C48.1571 19.453 48.2461 18.5719 47.8935 18.2927C48.4513 17.9016 49.5848 16.9194 49.6558 16.1191L45.1456 13.1227C43.3395 14.9048 44.0195 17.7236 44.457 21.6386Z" fill="#FCB7A0"/>
<path d="M45.2479 13.2037C43.5273 14.4972 44.0195 17.7236 44.457 21.6386C44.807 24.7705 50.324 25.0932 53.0387 24.8631C53.7001 23.6025 53.632 20.8367 48.0685 19.8587C48.1571 19.453 48.2461 18.5719 47.8935 18.2927C48.4513 17.9016 49.5848 16.9194 49.6558 16.1191" stroke="#E08878" stroke-width="0.207641"/>
<path d="M58.2947 3.68387C56.7439 5.59665 55.7018 6.3718 55.2469 6.48748C58.5024 9.30242 65.0842 14.1971 66.389 11.5186C67.6938 8.84014 72.1313 4.28764 74.1869 2.3462L68.6775 -1.81089L62.5802 -2.12042C61.0824 -0.0121459 59.3163 2.42386 58.2947 3.68387Z" fill="#FCB7A0"/>
<path d="M49.5273 24.6205C49.0144 23.6197 48.7721 21.8101 51.9058 22.5778" stroke="#E08878" stroke-width="0.207641" stroke-linecap="round"/>
<path d="M56.5896 17.033C57.2607 17.697 58.3499 17.486 58.5753 17.2771C58.937 16.7772 58.9049 15.9512 58.8032 15.466M52.597 20.0131C53.3006 20.9684 54.2957 20.7493 54.7053 20.5203C54.9173 19.9136 55.2986 18.8325 54.89 17.6792" stroke="#E08878" stroke-width="0.207641"/>
<path d="M58.3723 3.5715C58.098 3.99907 57.849 4.08757 57.849 4.08757L58.0871 2.56189C58.0871 2.56189 59.1335 -0.792901 60.2032 -2.22521C60.2966 -2.35027 60.3493 -2.50514 60.3688 -2.68564L81.4015 -1.15413C79.1447 2.38497 75.4602 1.8285 73.9234 3.72394C72.9513 4.923 70.3869 7.55723 70.3869 7.55723C69.2284 8.67439 68.8832 9.21475 67.4665 10.041C67.4665 10.041 67.9952 8.91383 68.5283 8.30214C65.2657 3.59751 60.8499 3.10886 58.3723 3.5715Z" fill="#1A4E66"/>
<path d="M58.3723 3.5715C58.098 3.99907 57.849 4.08757 57.849 4.08757L58.0871 2.56189C58.0871 2.56189 59.1335 -0.792902 60.2032 -2.22521C60.2966 -2.35027 60.3493 -2.50514 60.3688 -2.68564L63.1064 -2.4863C61.8205 -0.846108 61.5669 2.15678 61.6143 3.58611C60.3811 3.3627 59.254 3.40687 58.3723 3.5715Z" fill="#0F445C"/>
<path d="M74.4291 3.10552C69.1918 -2.54912 65.9876 -2.54583 60.4505 -2.64882" stroke="#0F3644" stroke-width="0.207641"/>
<path d="M74.3304 3.02603C71.7892 6.98921 67.4878 10.2226 67.4676 10.0407C67.4474 9.85874 68.5741 8.26136 68.5741 8.26136C66.8354 6.05527 63.9715 2.95837 58.2592 3.5816C58.2592 3.5816 57.8496 4.08719 57.7676 4.18825C57.6856 4.2893 57.9072 3.60168 57.9728 3.52081" stroke="#0F3644" stroke-width="0.207641"/>
<path d="M73.5956 2.27862C72.175 4.03081 69.0962 7.57953 68.1462 7.7569M72.4295 1.02366C70.9748 2.74886 67.9056 6.27196 67.2667 6.56282M70.9973 -0.110104C69.522 1.70948 66.4854 5.41331 66.1413 5.672M65.1183 4.86217C65.2456 4.06392 67.9516 0.679448 69.4204 -1.07198M63.6447 4.19363C63.5838 3.01916 66.1745 -0.17444 67.7019 -1.88058M62.0892 3.62618C62.0174 2.39086 64.2101 -0.538556 65.6877 -2.29834M60.5744 3.42288C61.6192 0.781251 62.8982 -1.32092 63.6895 -2.44384M59.2642 3.38154C59.2037 2.21578 60.8359 -0.892664 61.8186 -2.58007M60.64 -2.66589C59.6699 -1.055 58.0162 2.22767 57.8511 4.08859" stroke="#0F3644" stroke-width="0.207641"/>
<path d="M19.6987 46.7298L25.5191 41.6547C28.8756 47.0066 35.2742 57.8898 34.0155 58.6076C32.4421 59.505 29.1384 62.4905 27.7371 64.2528C26.6161 65.6627 23.2212 67.8483 22.1973 68.2006L19.6987 46.7298Z" fill="#EC7B86"/>
<path d="M30.9515 44.4556C30.6668 40.7069 27.2912 41.0691 25.639 41.7188L23.7553 46.1823C19.7131 49.3167 22.19 50.2407 23.9338 50.311C22.3059 52.2049 24.2946 53.4985 25.4924 53.9086C24.3587 56.0571 26.1663 56.9986 27.2441 57.1398C26.0202 59.4593 28.749 60.244 33.5716 58.8468C37.4296 57.7291 36.0661 55.1118 34.902 53.9429C36.7791 52.0531 34.9921 49.9008 33.864 49.0609C34.615 45.97 32.2352 44.7028 30.9515 44.4556Z" fill="#FF9BA5"/>
<path d="M9.26361 62.628C8.48644 64.3392 1.80937 68.7337 -1.52885 70.792L-4.2126 84.8617L7.75597 85.1401C10.8267 80.5116 18.66 71.9192 22.1929 68.2016L23.4462 56.8923C24.459 53.0668 22.1336 49.8505 20.8442 48.7205C21.1019 48.2322 20.7221 47.3637 20.5 46.9906C21.2476 47.0031 22.3222 46.1179 22.766 45.6738C30.6034 50.177 31.2517 45.0769 30.3225 44.7534C29.3932 44.43 24.3435 40.8972 23.4196 40.266C22.4956 39.6348 17.0025 43.7917 15.1715 45.1773C13.3405 46.5629 11.3976 50.8408 11.5117 55.0916C11.6258 59.3424 10.2351 60.4891 9.26361 62.628Z" fill="#FF9BA5"/>
<path d="M-1.21878 70.5844C2.11944 68.5261 8.48599 64.3412 9.26316 62.6301C10.2346 60.4911 11.6253 59.3444 11.5112 55.0936C11.3971 50.8429 13.3401 46.565 15.1711 45.1793C17.0021 43.7937 22.4952 39.6368 23.4191 40.268C24.3431 40.8993 29.3928 44.432 30.322 44.7555C31.2513 45.0789 30.603 50.179 22.7656 45.6758C22.3217 46.12 21.2471 47.0051 20.4995 46.9926C20.7216 47.3658 21.1014 48.2342 20.8438 48.7225C22.1331 49.8525 24.7057 53.1961 23.6928 57.0216" stroke="#EC7B86" stroke-width="0.275873"/>
<path d="M23.2865 50.6326C24.2942 50.0132 27.1152 48.3198 27.8239 47.6913M25.0331 54.1718C28.4242 52.5144 30.5819 51.3473 33.845 49.0852M26.8494 57.2811C30.0237 56.4347 32.124 55.7129 34.8831 53.9672" stroke="#EC7B86" stroke-width="0.275873"/>
<path d="M27.4068 43.1276C26.9844 43.531 26.2256 44.4133 26.5694 44.7146C26.9132 45.0159 28.6105 45.6108 29.4161 45.8706" stroke="#EC7B86" stroke-width="0.220699" stroke-linecap="round"/>
<path d="M4.35785 66.7698C4.76259 66.3945 5.01496 66.2139 5.01496 66.2139L3.02072 66.6357L-1.24039 69.2821L-4.36022 85.6371L9.88581 88.2903C10.5065 87.0316 10.9511 85.1234 11.4291 83.8522C11.7275 83.0586 14.0875 79.2068 14.0875 79.2068C14.9646 77.7432 15.4093 76.8953 15.8291 75.2005C15.8291 75.2005 14.7499 76.3525 14.2284 77.0432C7.20712 74.3036 4.8113 69.5607 4.35785 66.7698Z" fill="#D7E0DC"/>
<path d="M4.38344 66.8191L5.0172 66.214L3.07827 66.6125C3.07827 66.6125 0.829724 67.8812 -1.23264 69.2605L-4.35655 85.6369L-1.48348 86.172C-1.17307 82.6057 0.720925 73.2646 2.68253 71.5322L3.28444 72.7738C4.13149 71.6737 4.72667 71.2637 6.11947 70.9738C5.14692 69.5413 4.9746 68.6762 4.38344 66.8191Z" fill="#BCC5C1"/>
<path d="M1.30981 67.8745C3.62773 75.1162 6.45589 77.5738 13.6244 79.7761" stroke="#B3BCB8" stroke-width="0.275873"/>
<path d="M1.78509 69.3602L-1.71722 72.0918M2.68267 71.5304C1.66539 72.1106 -0.307682 73.4316 -2.34616 75.2387M3.76822 73.6423C2.1107 74.8703 -1.66523 78.0441 -3.24146 79.9321M4.98787 75.2021C3.54545 76.9432 -2.67202 83.7082 -3.82765 84.2308M6.64257 76.8308C5.58309 78.3547 -0.0809053 85.057 -1.34366 86.1467C-1.37552 86.1742 -1.40458 86.1981 -1.43069 86.2182M8.61934 77.8491C7.90552 79.4998 3.93645 86.0835 2.47586 86.9458M10.5961 78.8675C10.0952 80.2138 7.30016 85.7869 5.62501 87.5323M12.5781 79.578C11.9305 81.004 9.19014 86.2884 7.81572 87.9403" stroke="#B3BCB8" stroke-width="0.275873"/>
</g>
</svg>
